<svg width="82" height="81" viewBox="0 0 82 81" fill="none" xmlns="http://www.w3.org/2000/svg">
<path d="M75.1666 27.0001H74.8932L28.7 36.1531V22.9501C28.7 16.9695 45.346 8.1 68.3334 8.1C69.9188 8.1 71.0668 6.399 71.0668 4.05C71.0668 1.701 69.9188 0 68.3334 0C32.8 0 0 2.29505 0 18.9001V79.6501C0 80.3957 0.611797 81 1.36661 81H27.3332C28.088 81 28.6998 80.3957 28.6998 79.6501V57.6044L65.5998 42.6465V45.8999C65.5998 46.6456 66.2116 47.2499 66.9665 47.2499H77.9C78.6548 47.2499 79.2666 46.6456 79.2666 45.8999V37.1114L81.1526 36.3419C81.663 36.1349 81.9971 35.6449 82 35.0999C82 31.6171 81.2894 27.0001 75.1666 27.0001ZM2.73339 18.9001C2.73339 4.67111 35.711 2.70005 68.06 2.70005C68.2568 3.12277 68.3505 3.58504 68.3334 4.05C68.3521 4.51512 68.2584 4.97786 68.06 5.39995C46.3846 5.4675 25.9666 13.9725 25.9666 22.9501V29.7001H2.73339V18.9001ZM25.9666 78.2999H2.73339V75.5999H25.9668V78.2999H25.9666ZM76.5334 44.55H68.3334V41.5396L76.5334 38.2186V44.55ZM26.814 55.458C26.3036 55.665 25.9695 56.155 25.9666 56.7V72.9H2.73339V32.4H25.9668V37.7999C25.9516 38.5454 26.5509 39.1619 27.3055 39.1769C27.4066 39.179 27.5076 39.1698 27.6068 39.1499L75.3034 29.6999C77.695 29.6999 79.0618 30.5099 79.253 34.1954L26.814 55.458Z" fill="#6DB925"/>
<path d="M73.7044 50.8004C73.427 50.107 72.6329 49.767 71.931 50.0412C71.5794 50.1784 71.3012 50.4533 71.1624 50.8004C70.6978 51.9344 69.9734 53.4195 69.1944 54.9854C66.2424 60.9254 62.5798 68.3233 65.2858 72.6163C66.5432 74.5874 68.9484 75.5999 72.4334 75.5999C75.9184 75.5999 78.3238 74.5874 79.581 72.6163C82.3144 68.3233 78.6244 60.9253 75.6724 54.9854C74.8934 53.4195 74.1554 51.9344 73.7044 50.8004ZM77.3124 71.1855C76.5334 72.3195 74.9208 72.9 72.4334 72.9C69.946 72.9 68.3334 72.3195 67.609 71.1855C65.6956 68.1615 69.2764 60.939 71.6544 56.1735L72.4334 54.5805L73.2124 56.1735C75.5766 60.9525 79.1574 68.1615 77.3124 71.1855Z" fill="#6DB925"/>
<path d="M72.4334 67.5C71.6786 67.5 71.0668 68.1043 71.0668 68.85C71.0668 69.5956 71.6787 70.1999 72.4334 70.1999C73.943 70.1999 75.1668 68.9911 75.1668 67.4998C75.1668 66.7542 74.555 66.1499 73.8002 66.1499C73.0453 66.1499 72.4334 66.7544 72.4334 67.5Z" fill="#6DB925"/>
</svg>
