<svg width="81" height="81" viewBox="0 0 81 81" fill="none" xmlns="http://www.w3.org/2000/svg">
<g clip-path="url(#clip0)">
<path d="M58.8676 1.85219C56.4359 -0.579458 52.193 -0.589576 49.758 1.85219L32.4561 19.154C31.7985 19.8117 31.7985 20.8809 32.4561 21.5386C33.1138 22.1963 34.183 22.1963 34.8407 21.5386L52.1425 4.23673C53.3028 3.07648 55.3062 3.05972 56.5034 4.25697C57.7007 5.4509 57.7007 7.40368 56.5034 8.59761L39.2183 25.8825C38.5606 26.5402 38.5606 27.6094 39.2183 28.2671C39.5489 28.5942 39.9805 28.7596 40.4122 28.7596C40.844 28.7596 41.2756 28.5943 41.6029 28.2671L58.8878 10.982C61.3971 8.46939 61.3971 4.38502 58.8676 1.85219Z" fill="#6DB925"/>
<path d="M79.1003 22.0917C76.6687 19.66 72.4258 19.6499 69.9908 22.0917L52.7395 39.343C52.0819 40.0006 52.0819 41.0698 52.7395 41.7275C53.3972 42.3852 54.4664 42.3852 55.1241 41.7275L72.3753 24.4762C73.5356 23.316 75.539 23.2992 76.7362 24.4965C77.9335 25.6904 77.9335 27.6432 76.7362 28.8371L59.5017 46.0715C58.844 46.7291 58.844 47.7983 59.5017 48.456C59.8323 48.7831 60.2639 48.9485 60.6956 48.9485C61.1274 48.9485 61.559 48.7833 61.8862 48.456L79.1206 31.2216C81.6299 28.7089 81.6299 24.6247 79.1003 22.0917Z" fill="#6DB925"/>
<path d="M14.6821 59.5487C14.0244 58.891 12.9552 58.891 12.2975 59.5487L0.493255 71.3531C-0.164418 72.0108 -0.164418 73.08 0.493255 73.7376C0.82383 74.0647 1.25543 74.2301 1.68718 74.2301C2.11894 74.2301 2.55054 74.0649 2.87779 73.7376L14.6822 61.9332C15.3397 61.2755 15.3397 60.2063 14.6821 59.5487Z" fill="#6DB925"/>
<path d="M21.4275 66.294C20.7699 65.6364 19.7007 65.6364 19.043 66.294L7.23856 78.0985C6.58088 78.7562 6.58088 79.8253 7.23856 80.483C7.56913 80.8101 8.00073 80.9755 8.43249 80.9755C8.86424 80.9755 9.29584 80.8103 9.62309 80.483L21.4275 68.6786C22.0852 68.0209 22.0852 66.9517 21.4275 66.294Z" fill="#6DB925"/>
<path d="M67.0497 51.2048L29.7681 14.1053C29.1104 13.4509 28.0447 13.4544 27.387 14.1086L20.7293 20.7595C20.4157 21.0764 20.2369 21.5049 20.2369 21.9534C20.2369 22.4019 20.4157 22.8303 20.7326 23.144L22.9113 25.3262L12.4189 35.8186C8.91476 39.3194 6.98553 43.9805 6.98553 48.9349C6.98553 53.8927 8.91476 58.5503 12.4189 62.0547L18.9248 68.5606C22.5403 72.176 27.2891 73.9838 32.0411 73.9838C36.7898 73.9838 41.542 72.1727 45.1609 68.5573L55.6533 58.0648L57.832 60.2435C58.4829 60.8944 59.5352 60.9012 60.1996 60.2605L67.0361 53.6061C67.3599 53.2924 67.542 52.8607 67.5454 52.4089C67.5488 51.9602 67.3702 51.5251 67.0497 51.2048ZM59.0362 56.6853L56.8406 54.4897C56.21 53.8556 55.0902 53.8556 54.4561 54.4897L42.7731 66.176C36.854 72.0918 27.2284 72.0918 21.3094 66.176L14.8035 59.6701C11.9367 56.7999 10.3583 52.9922 10.3583 48.9349C10.3583 44.8776 11.9367 41.0698 14.8035 38.203L26.4865 26.5166C27.1442 25.8589 27.1442 24.7898 26.4865 24.1321L24.3078 21.9534L28.5809 17.6802L63.451 52.3885L59.0362 56.6853Z" fill="#6DB925"/>
</g>
<defs>
<clipPath id="clip0">
<rect width="81" height="81" fill="white"/>
</clipPath>
</defs>
</svg>
