<svg width="48" height="48" viewBox="0 0 48 48" fill="none" xmlns="http://www.w3.org/2000/svg"><path d="M0.864895 8.86842C2.80412 5.0745 5.67817 1.80212 8.42689 0.915413C9.05539 0.712669 9.7639 0.623007 10.3323 0.959222C12.5655 2.28022 17.6088 7.79563 19.0253 11.7192C19.2985 12.4758 19.2588 13.329 18.7978 13.9882C16.9842 16.5815 12.5598 16.8892 11.8876 19.211C11.4565 20.7002 20.3492 33.2349 26.9182 35.9267C28.0508 36.3908 29.3503 36.0486 30.0584 35.0502C31.4105 33.144 31.9838 30.5843 34.3778 29.2002C34.9181 28.8878 35.5416 28.8599 36.1005 29.1378C38.3629 30.2625 44.196 33.9368 46.5703 37.3279C47.158 38.1673 47.2314 39.2468 46.8049 40.1784C45.8376 42.291 43.7893 45.0211 40.8356 46.8208C40.2852 47.1562 39.6545 47.3417 39.01 47.3321C33.679 47.253 22.0779 43.4579 13.4006 34.7793C5.07941 25.852 -0.470642 11.4813 0.864895 8.86842Z" fill="#6DB925"/></svg>