<svg width="110" height="82" viewBox="0 0 110 82" fill="none" xmlns="http://www.w3.org/2000/svg">
<path d="M16.0886 9.78593H21.3552C22.9237 9.78593 24.3482 10.4261 25.3792 11.4571C26.4103 12.4882 27.0504 13.9126 27.0504 15.4811V76.3049C27.0504 77.8733 26.4103 79.2977 25.3792 80.3288C24.348 81.3599 22.9236 82 21.3552 82H16.0886C14.5201 82 13.0957 81.3599 12.0648 80.3288C11.0336 79.2978 10.3936 77.8733 10.3936 76.3049V15.4811C10.3936 13.9126 11.0336 12.4883 12.0647 11.4571C13.0957 10.426 14.5202 9.78595 16.0886 9.78595V9.78593ZM21.3552 14.3652H16.0886C15.7841 14.3652 15.5055 14.4914 15.3023 14.6947C15.099 14.8979 14.9728 15.1765 14.9728 15.4811V76.3049C14.9728 76.6093 15.099 76.8879 15.3024 77.0912C15.5056 77.2944 15.7842 77.4208 16.0886 77.4208H21.3552C21.6598 77.4208 21.9383 77.2945 22.1416 77.0912C22.3449 76.8879 22.4712 76.6093 22.4712 76.3049V15.4811C22.4712 15.1766 22.3449 14.8981 22.1416 14.6947C21.9383 14.4914 21.6598 14.3652 21.3552 14.3652H21.3552Z" fill="#6DB925"/>
<path d="M40.242 9.78593H45.5086C47.077 9.78593 48.5015 10.4259 49.5325 11.4571C50.5636 12.4882 51.2037 13.9125 51.2037 15.4811V76.3049C51.2037 77.8733 50.5636 79.2977 49.5325 80.3288C48.5015 81.3599 47.077 82 45.5086 82H40.242C38.6736 82 37.2491 81.3599 36.2181 80.3288C35.187 79.2977 34.5469 77.8733 34.5469 76.3049V15.4811C34.5469 13.9125 35.1869 12.4881 36.2181 11.4571C37.249 10.426 38.6734 9.78593 40.242 9.78593V9.78593ZM45.5086 14.3652H40.242C39.9375 14.3652 39.659 14.4914 39.4557 14.6947C39.2524 14.8981 39.1261 15.1766 39.1261 15.4811V76.3049C39.1261 76.6093 39.2524 76.8879 39.4557 77.0912C39.659 77.2945 39.9375 77.4208 40.242 77.4208H45.5086C45.8131 77.4208 46.0916 77.2945 46.2949 77.0912C46.4983 76.8879 46.6245 76.6093 46.6245 76.3049V15.4811C46.6245 15.1766 46.4983 14.8981 46.2949 14.6947C46.0916 14.4914 45.8131 14.3652 45.5086 14.3652V14.3652Z" fill="#6DB925"/>
<path d="M64.3884 9.78593H69.655C71.2235 9.78593 72.6479 10.4261 73.679 11.4571C74.7101 12.4882 75.3502 13.9126 75.3502 15.4811V76.3049C75.3502 77.8733 74.7101 79.2977 73.679 80.3288C72.6479 81.3598 71.2234 82 69.655 82H64.3884C62.82 82 61.3955 81.3599 60.3646 80.3288C59.3334 79.2978 58.6934 77.8733 58.6934 76.3049V15.4811C58.6934 13.9126 59.3334 12.4883 60.3645 11.4571C61.3955 10.426 62.82 9.78595 64.3884 9.78595V9.78593ZM69.655 14.3652H64.3884C64.0839 14.3652 63.8053 14.4914 63.6021 14.6947C63.3988 14.8979 63.2726 15.1765 63.2726 15.4811V76.3049C63.2726 76.6093 63.3988 76.8879 63.6022 77.0912C63.8054 77.2944 64.0839 77.4208 64.3884 77.4208H69.655C69.9595 77.4208 70.2381 77.2945 70.4414 77.0912C70.6447 76.8879 70.771 76.6093 70.771 76.3049V15.4811C70.771 15.1766 70.6447 14.8981 70.4414 14.6947C70.2381 14.4914 69.9596 14.3652 69.655 14.3652V14.3652Z" fill="#6DB925"/>
<path d="M88.5545 9.78593H93.8211C95.3897 9.78593 96.8141 10.426 97.8451 11.4571C98.8762 12.4881 99.5163 13.9125 99.5163 15.4811V76.3049C99.5163 77.8733 98.8761 79.2977 97.8451 80.3288C96.814 81.3599 95.3895 82 93.8211 82H88.5545C86.9861 82 85.5616 81.3599 84.5306 80.3288C83.4995 79.2977 82.8594 77.8733 82.8594 76.3049V15.4811C82.8594 13.9125 83.4995 12.4882 84.5306 11.4571C85.5616 10.4259 86.9861 9.78593 88.5545 9.78593V9.78593ZM93.8211 14.3652H88.5545C88.25 14.3652 87.9715 14.4914 87.7682 14.6947C87.5649 14.8981 87.4386 15.1766 87.4386 15.4811V76.3049C87.4386 76.6093 87.5649 76.8879 87.7682 77.0912C87.9715 77.2945 88.25 77.4208 88.5545 77.4208H93.8211C94.1256 77.4208 94.4041 77.2945 94.6074 77.0912C94.8108 76.8879 94.937 76.6093 94.937 76.3049V15.4811C94.937 15.1766 94.8108 14.8981 94.6074 14.6947C94.4041 14.4914 94.1256 14.3652 93.8211 14.3652V14.3652Z" fill="#6DB925"/>
<path d="M24.7554 69.0393C23.491 69.0393 22.4658 70.0645 22.4658 71.329C22.4658 72.5934 23.491 73.6186 24.7554 73.6186H36.833C38.0974 73.6186 39.1226 72.5934 39.1226 71.329C39.1226 70.0645 38.0974 69.0393 36.833 69.0393H24.7554Z" fill="#6DB925"/>
<path d="M48.9087 69.0393C47.6443 69.0393 46.6191 70.0645 46.6191 71.329C46.6191 72.5934 47.6443 73.6186 48.9087 73.6186H60.9864C62.2508 73.6186 63.276 72.5934 63.276 71.329C63.276 70.0645 62.2508 69.0393 60.9864 69.0393H48.9087Z" fill="#6DB925"/>
<path d="M73.0718 69.0393C71.8074 69.0393 70.7822 70.0645 70.7822 71.329C70.7822 72.5934 71.8074 73.6186 73.0718 73.6186H85.1494C86.4138 73.6186 87.439 72.5934 87.439 71.329C87.439 70.0645 86.4138 69.0393 85.1494 69.0393H73.0718Z" fill="#6DB925"/>
<path d="M24.7554 16.9087C23.491 16.9087 22.4658 17.9339 22.4658 19.1983C22.4658 20.4628 23.491 21.4879 24.7554 21.4879H36.833C38.0974 21.4879 39.1226 20.4628 39.1226 19.1983C39.1226 17.9339 38.0974 16.9087 36.833 16.9087H24.7554Z" fill="#6DB925"/>
<path d="M48.9087 16.9087C47.6443 16.9087 46.6191 17.9339 46.6191 19.1983C46.6191 20.4628 47.6443 21.4879 48.9087 21.4879H60.9864C62.2508 21.4879 63.276 20.4628 63.276 19.1983C63.276 17.9339 62.2508 16.9087 60.9864 16.9087H48.9087Z" fill="#6DB925"/>
<path d="M73.0718 16.9087C71.8074 16.9087 70.7822 17.9339 70.7822 19.1983C70.7822 20.4628 71.8074 21.4879 73.0718 21.4879H85.1494C86.4138 21.4879 87.439 20.4628 87.439 19.1983C87.439 17.9339 86.4138 16.9087 85.1494 16.9087H73.0718Z" fill="#6DB925"/>
<path d="M97.2232 16.0953H107.611C108.876 16.0953 109.901 17.1204 109.901 18.3849V26.594C109.901 27.8584 108.876 28.8836 107.611 28.8836H97.2232C95.9587 28.8836 94.9336 27.8584 94.9336 26.594V18.3849C94.9336 17.1204 95.9587 16.0953 97.2232 16.0953ZM105.322 20.6745H99.5128V24.3044H105.322V20.6745Z" fill="#6DB925"/>
<path d="M12.6778 75.6906H2.2896C1.02514 75.6906 0 74.6654 0 73.401V65.1919C0 63.9274 1.02514 62.9023 2.2896 62.9023H12.6778C13.9423 62.9023 14.9674 63.9274 14.9674 65.1919V73.401C14.9674 74.6655 13.9423 75.6906 12.6778 75.6906ZM4.57923 71.1114H10.3882V67.4815H4.57923V71.1114Z" fill="#6DB925"/>
<path d="M16.4336 12.0754C16.4336 13.3398 17.4587 14.365 18.7232 14.365C19.9877 14.365 21.0128 13.3398 21.0128 12.0754V2.28961C21.0128 1.02514 19.9877 0 18.7232 0C17.4587 0 16.4336 1.02514 16.4336 2.28961V12.0754Z" fill="#6DB925"/>
<path d="M13.8209 0.000244141C12.5564 0.000244141 11.5312 1.02539 11.5312 2.28985C11.5312 3.55432 12.5564 4.57946 13.8209 4.57946H23.6067C24.8712 4.57946 25.8963 3.55432 25.8963 2.28985C25.8963 1.02539 24.8711 0.000244141 23.6067 0.000244141H13.8209Z" fill="#6DB925"/>
<path d="M40.5791 12.0754C40.5791 13.3398 41.6043 14.365 42.8687 14.365C44.1332 14.365 45.1583 13.3398 45.1583 12.0754V2.28961C45.1583 1.02514 44.1332 0 42.8687 0C41.6042 0 40.5791 1.02514 40.5791 2.28961V12.0754Z" fill="#6DB925"/>
<path d="M37.982 0.000244141C36.7175 0.000244141 35.6924 1.02539 35.6924 2.28985C35.6924 3.55432 36.7175 4.57946 37.982 4.57946H47.7678C49.0323 4.57946 50.0574 3.55432 50.0574 2.28985C50.0574 1.02539 49.0323 0.000244141 47.7678 0.000244141H37.982Z" fill="#6DB925"/>
<path d="M64.7314 12.0754C64.7314 13.3398 65.7566 14.365 67.0211 14.365C68.2855 14.365 69.3107 13.3398 69.3107 12.0754V2.28961C69.3107 1.02514 68.2855 0 67.0211 0C65.7566 0 64.7314 1.02514 64.7314 2.28961V12.0754V12.0754Z" fill="#6DB925"/>
<path d="M62.1343 0.000244141C60.8699 0.000244141 59.8447 1.02539 59.8447 2.28985C59.8447 3.55432 60.8699 4.57946 62.1343 4.57946H71.9202C73.1846 4.57946 74.2098 3.55432 74.2098 2.28985C74.2098 1.02539 73.1846 0.000244141 71.9202 0.000244141H62.1343Z" fill="#6DB925"/>
<path d="M88.8936 12.0754C88.8936 13.3398 89.9187 14.365 91.1832 14.365C92.4476 14.365 93.4728 13.3398 93.4728 12.0754V2.28961C93.4728 1.02514 92.4476 0 91.1832 0C89.9187 0 88.8936 1.02514 88.8936 2.28961V12.0754Z" fill="#6DB925"/>
<path d="M86.2877 0.000244141C85.0232 0.000244141 83.998 1.02539 83.998 2.28985C83.998 3.55432 85.0232 4.57946 86.2877 4.57946H96.0735C97.338 4.57946 98.3631 3.55432 98.3631 2.28985C98.3631 1.02539 97.338 0.000244141 96.0735 0.000244141H86.2877Z" fill="#6DB925"/>
</svg>
