<svg width="110" height="85" viewBox="0 0 110 85" fill="none" xmlns="http://www.w3.org/2000/svg">
<path d="M108 46.3601C108 66.28 91.8518 82.4282 71.9319 82.4282C52.0121 82.4282 35.8639 66.28 35.8639 46.3601C35.8639 29.5874 50.012 15.2127 65.998 11.3165C66.4549 11.2051 66.7065 11.232 66.8643 11.2681C67.0581 11.3125 67.2639 11.404 67.6668 11.6304C67.7266 11.6641 67.7891 11.6997 67.8542 11.7369C68.6808 12.2092 69.9433 12.9304 71.9319 12.9304C73.8666 12.9304 75.1934 12.246 76.0803 11.7885C76.1599 11.7475 76.2359 11.7083 76.3086 11.6715C77.1013 11.2705 77.4859 11.132 78.2428 11.3165C94.2001 15.2057 108 29.5621 108 46.3601Z" stroke="#6DB925" stroke-width="4"/>
<circle cx="72.3088" cy="46.737" r="3.01529" fill="#6DB925"/>
<line x1="72.0626" y1="46.7371" x2="72.0626" y2="19.5994" stroke="#6DB925" stroke-width="2"/>
<path d="M76.8318 44.9218L85.9839 41.1204" stroke="#6DB925" stroke-width="4"/>
<path d="M70.0474 8.29206C69.283 7.04707 69.2935 4.52295 69.2935 4.52295H75.3241C75.3241 4.52295 75.3348 7.04707 74.5704 8.29206C73.3267 10.3181 71.2912 10.3181 70.0474 8.29206Z" fill="#6DB925" stroke="#6DB925"/>
<rect x="67.0321" width="10.5535" height="3.76911" rx="1" fill="#6DB925"/>
<rect x="0.695679" y="44.4756" width="30.1529" height="5.27676" rx="2.63838" fill="#6DB925"/>
<rect x="8.98773" y="32.4144" width="24.1223" height="5.27676" rx="2.63838" fill="#6DB925"/>
<rect x="15.0183" y="20.3533" width="24.1223" height="5.27676" rx="2.63838" fill="#6DB925"/>
<rect x="9.74155" y="56.5367" width="24.1223" height="5.27676" rx="2.63838" fill="#6DB925"/>
<rect x="15.0183" y="68.5979" width="24.1223" height="5.27676" rx="2.63838" fill="#6DB925"/>
</svg>
