<svg width="99" height="105" viewBox="0 0 99 105" fill="none" xmlns="http://www.w3.org/2000/svg">
<path d="M14.6364 38.1818H23.5455V52.8181H11.7727L14.6364 38.1818Z" fill="#6DB925"/>
<path d="M85.2727 38.1818H76.3636V52.8181H88.1364L85.2727 38.1818Z" fill="#6DB925"/>
<path d="M26.7273 38.1818H34.6818L40.0909 52.8181H26.7273V38.1818Z" fill="#6DB925"/>
<path d="M73.8182 38.1818H68.4091L61.7273 52.8181H73.8182V38.1818Z" fill="#6DB925"/>
<path d="M26.7273 56.6364H41.2045C41.2045 56.6364 44.6236 66.1818 50.5909 66.1818C56.5582 66.1818 60.6136 56.6364 60.6136 56.6364H74.4545V71.2727H26.7273V56.6364Z" fill="#6DB925"/>
<path d="M10.5 56.6364H23.5454V71.2727H7.63635L10.5 56.6364Z" fill="#6DB925"/>
<path d="M89.0909 56.6364H76.3636V71.2727H91.9545L89.0909 56.6364Z" fill="#6DB925"/>
<path d="M5.09091 78.2727H23.5455V105H0L5.09091 78.2727Z" fill="#6DB925"/>
<path d="M26.7273 78.2727H50.2727L61.0909 105H26.7273L26.7273 78.2727Z" fill="#6DB925"/>
<path d="M93.8636 78.2727H53.4545L64.3126 105H98.6364L93.8636 78.2727Z" fill="#6DB925"/>
<path d="M68.0909 15.5909C68.0909 24.2015 63.3182 33.0909 51.2273 63.3182C41.3636 33.4091 36.9091 24.2015 36.9091 15.5909C36.9091 6.98029 43.8894 0 52.5 0C61.1106 0 68.0909 6.98029 68.0909 15.5909Z" fill="#6DB925"/>
<circle cx="52.1818" cy="15.9091" r="12.0909" fill="white"/>
</svg>
