<svg width="154" height="154" viewBox="0 0 154 154" fill="none" xmlns="http://www.w3.org/2000/svg">
<path d="M124.565 51.9396C124.505 52.4471 124.432 53.0389 124.345 53.7079C124.024 56.2069 123.518 59.7824 122.784 64.0752C121.314 72.6682 118.933 84.1014 115.292 95.5157C111.641 106.956 106.766 118.241 100.366 126.632C93.9758 135.009 86.256 140.274 76.8658 140.286C67.4698 140.298 59.7388 135.045 53.3344 126.673C46.9195 118.287 42.0264 106.998 38.3594 95.5519C34.7007 84.1312 32.3044 72.6883 30.8227 64.0873C30.0825 59.7904 29.572 56.2113 29.2469 53.7097C29.1603 53.043 29.0868 52.4529 29.0257 51.9464C29.7766 51.9181 30.7015 51.8748 31.7759 51.8087C34.8697 51.6183 39.2115 51.2379 44.2191 50.4773C53.9114 49.0051 66.2415 46.0876 76.8442 40.2641C88.5635 46.072 100.871 48.9973 110.296 50.4758C115.146 51.2366 119.254 51.6174 122.155 51.8082C123.087 51.8695 123.896 51.9112 124.565 51.9396Z" stroke="#6DB925" stroke-width="4"/>
</svg>
