<svg width="83" height="82" viewBox="0 0 83 82" fill="none" xmlns="http://www.w3.org/2000/svg">
<g clip-path="url(#clip0)">
<path d="M75.763 13.1328C75.763 13.1328 66.6848 13.0687 57.3473 9.225C44.8973 4.03594 41.5254 0 41.5254 0C41.5254 0 38.1536 4.03594 25.7036 9.09687C16.3012 12.9406 7.28795 13.0047 7.28795 13.0047C7.28795 13.0047 6.05591 38.6297 15.1989 57.2719C23.045 73.2875 41.5254 82 41.5254 82C41.5254 82 60.0059 73.8 67.852 57.6562C76.995 38.8859 75.763 13.1328 75.763 13.1328ZM62.5997 55.0297C56.3747 68.0984 41.5254 75.4656 41.5254 75.4656C41.5254 75.4656 26.6762 67.65 20.4512 54.6453C12.2161 37.4766 12.5403 18.1937 12.5403 18.1937C12.5403 18.1937 20.1919 17.4891 28.1676 14.2219C38.6723 9.92969 41.5254 6.53437 41.5254 6.53437V6.59844C41.5254 6.59844 44.3786 10.0578 54.8833 14.4141C62.7942 17.6812 70.4458 18.3859 70.4458 18.3859C70.4458 18.3859 70.8348 37.7328 62.5997 55.0297ZM24.8606 56.4391C31.2801 65.4719 41.5903 71.6219 41.5903 71.6219C41.5903 71.6219 55.0778 64.2547 60.784 52.5312C63.8317 46.3172 65.2583 39.0781 65.9715 32.9922C65.9067 32.9922 65.3231 33.2484 63.5075 34.2734C55.402 38.95 27.0004 55.2859 24.8606 56.4391ZM53.0676 17.1047C43.9895 13.3891 41.5254 10.3781 41.5254 10.3781C41.5254 10.3781 39.0614 13.325 29.9833 17.0406C23.1098 19.8594 16.4958 19.9234 16.4958 19.9234C16.4958 19.9234 15.7176 36.0031 20.97 49.2C46.1294 35.3625 66.5551 23.3828 66.5551 23.3828L66.4903 19.9234C66.5551 19.9875 59.9411 19.9234 53.0676 17.1047Z" fill="#6DB925"/>
</g>
<defs>
<clipPath id="clip0">
<rect width="83" height="82" fill="white"/>
</clipPath>
</defs>
</svg>
