<svg width="71" height="17" viewBox="0 0 71 17" fill="none" xmlns="http://www.w3.org/2000/svg">
<path d="M10.6016 2.96973H3.61914V5.99902H6.13281C7.97331 5.99902 9.43066 6.44661 10.5049 7.3418C11.5863 8.22982 12.127 9.42936 12.127 10.9404C12.127 12.4587 11.5898 13.6797 10.5156 14.6035C9.44857 15.5202 8.02702 15.9857 6.25098 16H0.364258V0.359375H10.6016V2.96973ZM3.61914 8.59863V13.4111H6.18652C7.01009 13.4111 7.66536 13.1855 8.15234 12.7344C8.64648 12.2832 8.89355 11.6781 8.89355 10.9189C8.89355 10.21 8.65723 9.65137 8.18457 9.24316C7.71908 8.8278 7.07812 8.61296 6.26172 8.59863H3.61914ZM17.4121 10.4893V16H14.1895V0.359375H20.291C21.4655 0.359375 22.4967 0.574219 23.3848 1.00391C24.2799 1.43359 24.9674 2.0459 25.4473 2.84082C25.9271 3.62858 26.167 4.52734 26.167 5.53711C26.167 7.06966 25.6406 8.27995 24.5879 9.16797C23.5423 10.0488 22.0921 10.4893 20.2373 10.4893H17.4121ZM17.4121 7.87891H20.291C21.1432 7.87891 21.7913 7.67839 22.2354 7.27734C22.6865 6.8763 22.9121 6.30339 22.9121 5.55859C22.9121 4.79232 22.6865 4.17285 22.2354 3.7002C21.7842 3.22754 21.1611 2.98405 20.3662 2.96973H17.4121V7.87891ZM41.2383 8.53418C41.2383 10.0739 40.9661 11.4238 40.4219 12.584C39.8776 13.7441 39.097 14.6393 38.0801 15.2695C37.0703 15.8997 35.9102 16.2148 34.5996 16.2148C33.3034 16.2148 32.1468 15.9033 31.1299 15.2803C30.113 14.6572 29.3252 13.7692 28.7666 12.6162C28.208 11.4561 27.9251 10.124 27.918 8.62012V7.84668C27.918 6.30697 28.1937 4.95345 28.7451 3.78613C29.3037 2.61165 30.0879 1.71289 31.0977 1.08984C32.1146 0.459635 33.2747 0.144531 34.5781 0.144531C35.8815 0.144531 37.0381 0.459635 38.0479 1.08984C39.0648 1.71289 39.849 2.61165 40.4004 3.78613C40.959 4.95345 41.2383 6.30339 41.2383 7.83594V8.53418ZM37.9727 7.8252C37.9727 6.18522 37.679 4.93913 37.0918 4.08691C36.5046 3.2347 35.6667 2.80859 34.5781 2.80859C33.4967 2.80859 32.6624 3.23112 32.0752 4.07617C31.488 4.91406 31.1908 6.14583 31.1836 7.77148V8.53418C31.1836 10.1312 31.4772 11.3701 32.0645 12.251C32.6517 13.1318 33.4967 13.5723 34.5996 13.5723C35.681 13.5723 36.5117 13.1497 37.0918 12.3047C37.6719 11.4525 37.9655 10.2135 37.9727 8.58789V7.8252ZM56.3096 16H53.0869V9.29688H46.8027V16H43.5801V0.359375H46.8027V6.69727H53.0869V0.359375H56.3096V16ZM62.3574 5.99902H64.8711C66.7116 5.99902 68.1689 6.44661 69.2432 7.3418C70.3245 8.22982 70.8652 9.42936 70.8652 10.9404C70.8652 12.4587 70.3281 13.6797 69.2539 14.6035C68.1868 15.5202 66.7653 15.9857 64.9893 16H59.1133V0.359375H62.3574V5.99902ZM62.3574 8.59863V13.4111H64.9248C65.7484 13.4111 66.4036 13.1855 66.8906 12.7344C67.3848 12.2832 67.6318 11.6781 67.6318 10.9189C67.6318 10.21 67.3955 9.65137 66.9229 9.24316C66.4574 8.8278 65.8164 8.61296 65 8.59863H62.3574Z" fill="#26B04D"/>
</svg>
