<svg width="105" height="20" viewBox="0 0 105 20" fill="none" xmlns="http://www.w3.org/2000/svg">
<path d="M13.1367 16H9.90332V2.96973H3.64062V16H0.417969V0.359375H13.1367V16ZM19.1953 10.4893V16H15.9727V0.359375H22.0742C23.2487 0.359375 24.2799 0.574219 25.168 1.00391C26.0632 1.43359 26.7507 2.0459 27.2305 2.84082C27.7103 3.62858 27.9502 4.52734 27.9502 5.53711C27.9502 7.06966 27.4238 8.27995 26.3711 9.16797C25.3255 10.0488 23.8753 10.4893 22.0205 10.4893H19.1953ZM19.1953 7.87891H22.0742C22.9264 7.87891 23.5745 7.67839 24.0186 7.27734C24.4697 6.8763 24.6953 6.30339 24.6953 5.55859C24.6953 4.79232 24.4697 4.17285 24.0186 3.7002C23.5674 3.22754 22.9443 2.98405 22.1494 2.96973H19.1953V7.87891ZM43.0215 8.53418C43.0215 10.0739 42.7493 11.4238 42.2051 12.584C41.6608 13.7441 40.8802 14.6393 39.8633 15.2695C38.8535 15.8997 37.6934 16.2148 36.3828 16.2148C35.0866 16.2148 33.93 15.9033 32.9131 15.2803C31.8962 14.6572 31.1084 13.7692 30.5498 12.6162C29.9912 11.4561 29.7083 10.124 29.7012 8.62012V7.84668C29.7012 6.30697 29.9769 4.95345 30.5283 3.78613C31.0869 2.61165 31.8711 1.71289 32.8809 1.08984C33.8978 0.459635 35.0579 0.144531 36.3613 0.144531C37.6647 0.144531 38.8213 0.459635 39.8311 1.08984C40.848 1.71289 41.6322 2.61165 42.1836 3.78613C42.7422 4.95345 43.0215 6.30339 43.0215 7.83594V8.53418ZM39.7559 7.8252C39.7559 6.18522 39.4622 4.93913 38.875 4.08691C38.2878 3.2347 37.4499 2.80859 36.3613 2.80859C35.2799 2.80859 34.4456 3.23112 33.8584 4.07617C33.2712 4.91406 32.974 6.14583 32.9668 7.77148V8.53418C32.9668 10.1312 33.2604 11.3701 33.8477 12.251C34.4349 13.1318 35.2799 13.5723 36.3828 13.5723C37.4642 13.5723 38.2949 13.1497 38.875 12.3047C39.4551 11.4525 39.7487 10.2135 39.7559 8.58789V7.8252ZM59.5 19.8457H56.5244V16H47.0928V19.835H44.042L43.8701 13.4111H45.0518C45.6891 12.8812 46.1797 12.1042 46.5234 11.0801C46.8743 10.0488 47.1107 8.77409 47.2324 7.25586L47.6836 0.359375H57.9316V13.4111H59.7578L59.5 19.8457ZM48.7471 13.4111H54.709V2.96973H50.7451L50.4766 7.08398C50.2617 9.84115 49.6852 11.9502 48.7471 13.4111ZM70.457 12.7773H64.8066L63.7324 16H60.3057L66.1279 0.359375H69.1143L74.9688 16H71.542L70.457 12.7773ZM65.6768 10.167H69.5869L67.6211 4.3125L65.6768 10.167ZM89.1592 16H85.9365V9.29688H79.6523V16H76.4297V0.359375H79.6523V6.69727H85.9365V0.359375H89.1592V16ZM104.832 8.53418C104.832 10.0739 104.56 11.4238 104.016 12.584C103.471 13.7441 102.691 14.6393 101.674 15.2695C100.664 15.8997 99.5039 16.2148 98.1934 16.2148C96.8971 16.2148 95.7406 15.9033 94.7236 15.2803C93.7067 14.6572 92.9189 13.7692 92.3604 12.6162C91.8018 11.4561 91.5189 10.124 91.5117 8.62012V7.84668C91.5117 6.30697 91.7874 4.95345 92.3389 3.78613C92.8975 2.61165 93.6816 1.71289 94.6914 1.08984C95.7083 0.459635 96.8685 0.144531 98.1719 0.144531C99.4753 0.144531 100.632 0.459635 101.642 1.08984C102.659 1.71289 103.443 2.61165 103.994 3.78613C104.553 4.95345 104.832 6.30339 104.832 7.83594V8.53418ZM101.566 7.8252C101.566 6.18522 101.273 4.93913 100.686 4.08691C100.098 3.2347 99.2604 2.80859 98.1719 2.80859C97.0905 2.80859 96.2562 3.23112 95.6689 4.07617C95.0817 4.91406 94.7845 6.14583 94.7773 7.77148V8.53418C94.7773 10.1312 95.071 11.3701 95.6582 12.251C96.2454 13.1318 97.0905 13.5723 98.1934 13.5723C99.2747 13.5723 100.105 13.1497 100.686 12.3047C101.266 11.4525 101.559 10.2135 101.566 8.58789V7.8252Z" fill="#D20A0A"/>
</svg>
